<mxfile host="app.diagrams.net" agent="Mozilla/5.0 (Windows NT 10.0; Win64; x64) AppleWebKit/537.36 (KHTML, like Gecko) Chrome/135.0.0.0 Safari/537.36" version="26.2.9">
  <diagram id="W6GYigXJPIm_Jy2A0VpY" name="EcoRide Use Case Diagram">
    <mxGraphModel dx="4799" dy="3091" grid="1" gridSize="10" guides="1" tooltips="1" connect="1" arrows="1" fold="1" page="1" pageScale="1" pageWidth="827" pageHeight="1169" math="0" shadow="0">
      <root>
        <mxCell id="0" />
        <mxCell id="1" parent="0" />
        <mxCell id="C0QEW4jDcSrTgK3Q1vwN-1" value="" style="rounded=0;whiteSpace=wrap;html=1;fillColor=#60a917;fontColor=#ffffff;strokeColor=#2D7600;" vertex="1" parent="1">
          <mxGeometry x="-680" y="-210" width="570" height="770" as="geometry" />
        </mxCell>
        <mxCell id="C0QEW4jDcSrTgK3Q1vwN-2" value="Visiteur" style="shape=umlActor;verticalLabelPosition=bottom;verticalAlign=top;" vertex="1" parent="1">
          <mxGeometry x="-810" y="-180" width="30" height="60" as="geometry" />
        </mxCell>
        <mxCell id="C0QEW4jDcSrTgK3Q1vwN-3" value="Utilisateur" style="shape=umlActor;verticalLabelPosition=bottom;verticalAlign=top;" vertex="1" parent="1">
          <mxGeometry x="-810" y="-10" width="30" height="60" as="geometry" />
        </mxCell>
        <mxCell id="C0QEW4jDcSrTgK3Q1vwN-4" value="Employé" style="shape=umlActor;verticalLabelPosition=bottom;verticalAlign=top;" vertex="1" parent="1">
          <mxGeometry x="-810" y="160" width="30" height="60" as="geometry" />
        </mxCell>
        <mxCell id="C0QEW4jDcSrTgK3Q1vwN-5" value="Administrateur" style="shape=umlActor;verticalLabelPosition=bottom;verticalAlign=top;" vertex="1" parent="1">
          <mxGeometry x="-810" y="330" width="30" height="60" as="geometry" />
        </mxCell>
        <mxCell id="C0QEW4jDcSrTgK3Q1vwN-6" value="Voir page d’accueil" style="ellipse;whiteSpace=wrap;html=1;" vertex="1" parent="1">
          <mxGeometry x="-630" y="-160" width="130" height="40" as="geometry" />
        </mxCell>
        <mxCell id="C0QEW4jDcSrTgK3Q1vwN-7" value="Rechercher un itinéraire" style="ellipse;whiteSpace=wrap;html=1;" vertex="1" parent="1">
          <mxGeometry x="-645" y="-70" width="160" height="40" as="geometry" />
        </mxCell>
        <mxCell id="C0QEW4jDcSrTgK3Q1vwN-8" value="Filtrer les résultats" style="ellipse;whiteSpace=wrap;html=1;" vertex="1" parent="1">
          <mxGeometry x="-645" y="30" width="140" height="40" as="geometry" />
        </mxCell>
        <mxCell id="C0QEW4jDcSrTgK3Q1vwN-9" value="Voir détails d’un covoiturage" style="ellipse;whiteSpace=wrap;html=1;" vertex="1" parent="1">
          <mxGeometry x="-645" y="130" width="180" height="40" as="geometry" />
        </mxCell>
        <mxCell id="C0QEW4jDcSrTgK3Q1vwN-10" value="Participer à un covoiturage" style="ellipse;whiteSpace=wrap;html=1;" vertex="1" parent="1">
          <mxGeometry x="-645" y="220" width="180" height="40" as="geometry" />
        </mxCell>
        <mxCell id="C0QEW4jDcSrTgK3Q1vwN-11" value="Créer un compte / Se connecter" style="ellipse;whiteSpace=wrap;html=1;" vertex="1" parent="1">
          <mxGeometry x="-645" y="310" width="180" height="40" as="geometry" />
        </mxCell>
        <mxCell id="C0QEW4jDcSrTgK3Q1vwN-12" value="Ajouter un véhicule" style="ellipse;whiteSpace=wrap;html=1;" vertex="1" parent="1">
          <mxGeometry x="-270" y="-60" width="140" height="40" as="geometry" />
        </mxCell>
        <mxCell id="C0QEW4jDcSrTgK3Q1vwN-13" value="Créer un covoiturage" style="ellipse;whiteSpace=wrap;html=1;" vertex="1" parent="1">
          <mxGeometry x="-280" width="140" height="40" as="geometry" />
        </mxCell>
        <mxCell id="C0QEW4jDcSrTgK3Q1vwN-14" value="Annuler un covoiturage" style="ellipse;whiteSpace=wrap;html=1;" vertex="1" parent="1">
          <mxGeometry x="-290" y="60" width="160" height="40" as="geometry" />
        </mxCell>
        <mxCell id="C0QEW4jDcSrTgK3Q1vwN-15" value="Démarrer / Clore un covoiturage" style="ellipse;whiteSpace=wrap;html=1;" vertex="1" parent="1">
          <mxGeometry x="-300" y="130" width="180" height="40" as="geometry" />
        </mxCell>
        <mxCell id="C0QEW4jDcSrTgK3Q1vwN-16" value="Laisser un avis" style="ellipse;whiteSpace=wrap;html=1;" vertex="1" parent="1">
          <mxGeometry x="-270" y="220" width="120" height="40" as="geometry" />
        </mxCell>
        <mxCell id="C0QEW4jDcSrTgK3Q1vwN-17" value="Gérer les avis" style="ellipse;whiteSpace=wrap;html=1;" vertex="1" parent="1">
          <mxGeometry x="-270" y="300" width="120" height="40" as="geometry" />
        </mxCell>
        <mxCell id="C0QEW4jDcSrTgK3Q1vwN-18" value="Voir les incidents" style="ellipse;whiteSpace=wrap;html=1;" vertex="1" parent="1">
          <mxGeometry x="-280" y="360" width="140" height="40" as="geometry" />
        </mxCell>
        <mxCell id="C0QEW4jDcSrTgK3Q1vwN-19" value="Gérer les comptes" style="ellipse;whiteSpace=wrap;html=1;" vertex="1" parent="1">
          <mxGeometry x="-290" y="420" width="140" height="40" as="geometry" />
        </mxCell>
        <mxCell id="C0QEW4jDcSrTgK3Q1vwN-20" value="Voir les statistiques" style="ellipse;whiteSpace=wrap;html=1;" vertex="1" parent="1">
          <mxGeometry x="-300" y="480" width="160" height="40" as="geometry" />
        </mxCell>
        <mxCell id="C0QEW4jDcSrTgK3Q1vwN-21" style="endArrow=none;" edge="1" parent="1" source="C0QEW4jDcSrTgK3Q1vwN-2" target="C0QEW4jDcSrTgK3Q1vwN-6" />
        <mxCell id="C0QEW4jDcSrTgK3Q1vwN-22" style="endArrow=none;" edge="1" parent="1" source="C0QEW4jDcSrTgK3Q1vwN-2" target="C0QEW4jDcSrTgK3Q1vwN-7" />
        <mxCell id="C0QEW4jDcSrTgK3Q1vwN-23" style="endArrow=none;" edge="1" parent="1" source="C0QEW4jDcSrTgK3Q1vwN-2" target="C0QEW4jDcSrTgK3Q1vwN-8" />
        <mxCell id="C0QEW4jDcSrTgK3Q1vwN-24" style="endArrow=none;" edge="1" parent="1" source="C0QEW4jDcSrTgK3Q1vwN-2" target="C0QEW4jDcSrTgK3Q1vwN-9" />
        <mxCell id="C0QEW4jDcSrTgK3Q1vwN-25" style="endArrow=none;" edge="1" parent="1" source="C0QEW4jDcSrTgK3Q1vwN-3" target="C0QEW4jDcSrTgK3Q1vwN-10" />
        <mxCell id="C0QEW4jDcSrTgK3Q1vwN-26" style="endArrow=none;" edge="1" parent="1" source="C0QEW4jDcSrTgK3Q1vwN-2" target="C0QEW4jDcSrTgK3Q1vwN-11" />
        <mxCell id="C0QEW4jDcSrTgK3Q1vwN-27" style="endArrow=none;" edge="1" parent="1" source="C0QEW4jDcSrTgK3Q1vwN-3" target="C0QEW4jDcSrTgK3Q1vwN-12" />
        <mxCell id="C0QEW4jDcSrTgK3Q1vwN-28" style="endArrow=none;" edge="1" parent="1" source="C0QEW4jDcSrTgK3Q1vwN-3" target="C0QEW4jDcSrTgK3Q1vwN-13" />
        <mxCell id="C0QEW4jDcSrTgK3Q1vwN-29" style="endArrow=none;" edge="1" parent="1" source="C0QEW4jDcSrTgK3Q1vwN-3" target="C0QEW4jDcSrTgK3Q1vwN-14" />
        <mxCell id="C0QEW4jDcSrTgK3Q1vwN-30" style="endArrow=none;" edge="1" parent="1" source="C0QEW4jDcSrTgK3Q1vwN-3" target="C0QEW4jDcSrTgK3Q1vwN-15" />
        <mxCell id="C0QEW4jDcSrTgK3Q1vwN-31" style="endArrow=none;" edge="1" parent="1" source="C0QEW4jDcSrTgK3Q1vwN-3" target="C0QEW4jDcSrTgK3Q1vwN-16" />
        <mxCell id="C0QEW4jDcSrTgK3Q1vwN-32" style="endArrow=none;" edge="1" parent="1" source="C0QEW4jDcSrTgK3Q1vwN-4" target="C0QEW4jDcSrTgK3Q1vwN-17" />
        <mxCell id="C0QEW4jDcSrTgK3Q1vwN-33" style="endArrow=none;" edge="1" parent="1" source="C0QEW4jDcSrTgK3Q1vwN-4" target="C0QEW4jDcSrTgK3Q1vwN-18" />
        <mxCell id="C0QEW4jDcSrTgK3Q1vwN-34" style="endArrow=none;" edge="1" parent="1" source="C0QEW4jDcSrTgK3Q1vwN-5" target="C0QEW4jDcSrTgK3Q1vwN-19" />
        <mxCell id="C0QEW4jDcSrTgK3Q1vwN-35" style="endArrow=none;" edge="1" parent="1" source="C0QEW4jDcSrTgK3Q1vwN-5" target="C0QEW4jDcSrTgK3Q1vwN-20" />
      </root>
    </mxGraphModel>
  </diagram>
</mxfile>
